/* XPM */
static char *result[] = {
/* columns rows colors chars-per-pixel */
"48 48 192 2 ",
"   c #050505",
".  c #0B0806",
"X  c #0C0B0B",
"o  c #120D0B",
"O  c #15110F",
"+  c #1B120E",
"@  c #0F1111",
"#  c #141414",
"$  c #1C1514",
"%  c #1E1916",
"&  c #151618",
"*  c #171819",
"=  c #1B1C1C",
"-  c #241709",
";  c #221614",
":  c #241B16",
">  c #2B1B16",
",  c #24171B",
"<  c #241B1C",
"1  c #2A1D1C",
"2  c #311E1C",
"3  c #282218",
"4  c #2E211C",
"5  c #34231D",
"6  c #39241E",
"7  c #35281A",
"8  c #1E1F20",
"9  c #231E21",
"0  c #2A1E21",
"q  c #321F21",
"w  c #1F2021",
"e  c #232424",
"r  c #2A2424",
"t  c #2B2A26",
"y  c #252728",
"u  c #2A2729",
"i  c #262929",
"p  c #2B2C2C",
"a  c #362521",
"s  c #3C2621",
"d  c #372920",
"f  c #3C2923",
"g  c #392728",
"h  c #332D2A",
"j  c #2D302F",
"k  c #34322E",
"l  c #3A3328",
"z  c #2D2F30",
"x  c #2E3131",
"c  c #323534",
"v  c #393631",
"b  c #3C3A34",
"n  c #343738",
"m  c #3A3738",
"M  c #363A3A",
"N  c #393D3D",
"B  c #41251F",
"V  c #572D1F",
"C  c #49351D",
"Z  c #4D3C1D",
"A  c #6F2E1A",
"S  c #422622",
"D  c #442B24",
"F  c #4A2D26",
"G  c #412F2A",
"H  c #4C2F28",
"J  c #502E26",
"K  c #512F28",
"L  c #483726",
"P  c #4C3329",
"I  c #543129",
"U  c #5A352B",
"Y  c #553A2E",
"T  c #5C3A2E",
"R  c #443C36",
"E  c #403F38",
"W  c #5B3D30",
"Q  c #672F23",
"!  c #663526",
"~  c #603C2F",
"^  c #723728",
"/  c #3C403E",
"(  c #5F450C",
")  c #594418",
"_  c #6B4E0F",
"`  c #484236",
"'  c #43413A",
"]  c #614233",
"[  c #764A3E",
"{  c #7C6021",
"}  c #3B3F40",
"|  c #3D4242",
" . c #414646",
".. c #4A4946",
"X. c #444949",
"o. c #554D43",
"O. c #594F47",
"+. c #5B5148",
"@. c #5F594F",
"#. c #4C5152",
"$. c #515656",
"%. c #635A4E",
"&. c #675F51",
"*. c #6C6255",
"=. c #6F655A",
"-. c #716757",
";. c #75675A",
":. c #746A5B",
">. c #7B6B5D",
",. c #78715F",
"<. c #7A6F61",
"1. c #7C7363",
"2. c #B3691E",
"3. c #854C2E",
"4. c #905222",
"5. c #9C553D",
"6. c #AB4621",
"7. c #AA582F",
"8. c #B85C25",
"9. c #AE4E33",
"0. c #91722E",
"q. c #997628",
"w. c #8F7230",
"e. c #A67D24",
"r. c #C86F22",
"t. c #E56F29",
"y. c #847464",
"u. c #8D7A67",
"i. c #87766A",
"p. c #877868",
"a. c #8D7B6B",
"s. c #957B6A",
"d. c #937D6B",
"f. c #8D7F71",
"g. c #A6812D",
"h. c #F9862A",
"j. c #9F8343",
"k. c #A88B48",
"l. c #AA8E50",
"z. c #AF975F",
"x. c #8D816C",
"c. c #94816D",
"v. c #9A846E",
"b. c #8E8373",
"n. c #958473",
"m. c #998573",
"M. c #968A74",
"N. c #9D8A75",
"B. c #968678",
"V. c #9A8778",
"C. c #9D8B7B",
"Z. c #9E907D",
"A. c #B79E66",
"S. c #A18C76",
"D. c #A18E7B",
"F. c #A4927D",
"G. c #A9987E",
"H. c #B9A26B",
"J. c #C0A056",
"K. c #9F8E80",
"L. c #A18F81",
"P. c #A49382",
"I. c #A99784",
"U. c #AC9B83",
"Y. c #AC9C8A",
"T. c #B19E86",
"R. c #B19F8B",
"E. c #AEA38A",
"W. c #B2A186",
"Q. c #B3A38B",
"!. c #B8A68D",
"~. c #B6A98D",
"^. c #BAAB8E",
"/. c #B4A491",
"(. c #B8A692",
"). c #B7AA91",
"_. c #BDAD92",
"`. c #BEAE9A",
"'. c #BEB192",
"]. c #BFB099",
"[. c #C0AE97",
"{. c #C2B395",
"}. c #C7B897",
"|. c #C3B49B",
" X c #C7B99A",
".X c #CABD9C",
"XX c #C7B8A2",
"oX c #CCBDA1",
"OX c #CDC09F",
"+X c #CEC1A2",
"@X c #D1C4A6",
"#X c #D3C6A9",
/* pixels */
"B.Y.Q.Y.Q./.y.B.C.V.F.I.B.oXOX.XOX.XOXW.n.P.Z.C.K.K.C.Z.C.C.L.i.|.OXOXOXOX{.}.'.I.n.V.V.C.D.D.i.",
"Y.@X@XOX.XE.I.(.R.~.T.G./.@XOX.X.X'. XM.>.b.x.c.M.P.M.b.y.x.S.P.{.}.OX.X'.W.Q.G.n.Y.|.@X{.{.[.C.",
"Q..X.X{.^.P.R. X'.}..X{.Y. XoX X^.*.%.c w w p c x j j 3 e ..%.1.Y.^.{.).U.F.v.M.R.!..X.X.X}.R.V.",
"Q.Q.U.G.!.F.U.[..X.X}.}.d.R.Q.x.' / c k = M | | M c c w u c z c R x.S.F.V.S.N.).}. X X_.{.}.Q.s.",
"U.P.y.F.F.R.T.}..XOX'.}.d.=.b e * / M x e M M c c c c e  .M c e * w o.:.a.>.R.).{. X.X}.{.Q.{.u.",
"a.Q._.m.N.Q.[..X}.OX}.U.+.N M c w x x j w x c c c c p w n n c e p c x n i.L.B.Y.R.U.U.{.W.[.S.m.",
"`.{.^.U.i._.{. X{.}._.o.N | n c y w x j e y c c c i e & x c x w x n c c p b.V.Q.Y.C.P.S.F.s.S.m.",
"oX+XW.[.P.R..X}.^.'.%.M p / c c p = y w * * w w w * & & w j e x N x n p i c <.Q..X[.R.L.S.F.m.!.",
"oX.X^.@X|.C.(.{.~.>.N M x 8 c z u & * 8 = = < e e y y 8 i i 8 i } c i e n n p Y..X.X XoX`.i.!.{.",
".X.X{..X+X~.K.R.d.' M n c y 8 i 8 8 8 0 a S S 6 2 S S F q u e e y z = i c c z <.oX.X{. XQ.C..X.X",
".X X}..X^.~./.y.:.p n c c y # 8 e 9 1 J K T U K s U K Y K s 0 c y 8 * z c c x v _.OX!.{.R.D..X.X",
".X{.{.~.v.G.Z.P.R = p c x y & 8 r g D U I U U I 5 K D D U K q g #.M y } c c i = 1.}.}.{.S.P..X.X",
"}.{.W.F.N.M.|.b.i c * y p e = 8 1 Y s > 7 3 7 $ : ; : $ > 5 5 D z $.c } n i = e t F.G.!.m.I._. X",
"{.~.Y.B.K.+X#X,.M } z y 8 = 9 0 H Y D C j.Z w.% { 3 ) & ( 4 d T S X.} } p e c c e y.N.S.S.F.N.'.",
"Y.U.>.K._.#X).' c M n n 8 8 9 2 U Y D L A.` l.t g.` 0.= _ 5 5 T H q $.N N M n R x @.I.Y.C.D.C.N.",
"a.B.Y.a.Y.oXE.c M c c x = = 0 H Y Y D L H.` A.k J.` g.i e.4 5 T U F ..| | N R 7.n ` {.@X|.Q.I.S.",
"C.].@XE.Z.'.G.y 3.R c y 8 0 S K I Y B ) z.L l.t k.l q.* e.4 7 U I U d X.| X.M W h 5.{.{. X.X XI.",
"K.+X+X+XB.F.' X.7.A U e = q T K I Y f L j.l w.3 g.3 q.& g.5 2 U K U I m } | c V ^ k p.}.{..X XD.",
"P.oX XOX Xn.v [ t.4.a 8 9 q U K I P f 7 Z 3 Z % Z 3 Z + ) 2 7 U U U T g x e r 6.3.^ 1..X.X^._.S.",
"P.+X.X}..XI.h 9.h.8.a & < I K K I K f S 5 < 3 a 3 6 B C D F 2 U K U ] D = & J t.t.Q -.{.+X!.Q.N.",
"P.+XOX'.'.W.f 8.2.8.> = < I F P I D D U K D D P d T I T ~ K 6 K f P T 6 % w ! r.r.A &.R.~.U.I.C.",
"K.#XOXOX^.W.k + + - 9 = 0 Y f a 5 F L T I U P T d U U ~ T I 5 D $ 3 D + . i e - - X &.G.G.V.d.y.",
"P.@XOX.X_.S.h @ X @ 9 = 0 P < # : S G T K U P T 5 U U T I K 4 $ O O O & @ 8 w X   & O.m.P.Q.).Y.",
"P.+X}.W.U.n.v i   * p & < D * # X O $ ; % % : % $ $ $ % $ % $ # p * o O * y n X   u 1.^. X+X.XP.",
"P.Y.P.F.a.y.v c   w p = 1 G & # . X @ @ # & & * = & # & # # # # i = o # e i | @ X p 1. X.X.X#XI.",
"V.n.f.<./._.E x   = p = 1 P O . O 5 2 F s D D F r D D D S D < O . o $ # X y / @ X p ,..X.X@X!.L.",
"a.P.(.I. X'.E p X & = = , I 5 $ 2 F s T K K U U 5 U I U I U s f o $ S ; O & i # @ j 1..X.X{.P.n.",
"T.}._.I.oX{.b = @ # & & < g h l < l s U K I I ! 6 U I U I U 6 Y s S U 2 & & # O @ = :. X|.I.D.I.",
" X.X(.P.+X^.' M w e e = , > o ; o > s U K K I I 6 U I I K I 6 U H K ! S i = j w 8 i -.W.F.V..X.X",
".X.X/.Q..X'.' | e e i = , $ 2 B 2 $ 2 T U K K K 5 I I I U I 6 ~ U K U D i i | p 8 p -.v.m.Q..XoX",
"'.|.Q.Y.OX{./  .e e 9 = , $ r 6 2 $ 6 U I I I K 5 I I I I I S T U K Y F i * c c w j @.v.F.}..X.X",
"{.U.N.M.W.G.v e * = & * , F $ o + > s ! I I I K 6 I I U I U 6 U U K U F 9 * & w 8 w %.n.@XOXoX X",
"W.F.P.).C.M.h 3 = p p = , I D D H D 6 T I I I I 6 K I ! K U 6 U I I U F y e | i & = o.Y.{.'.'.'.",
"m.U._.#X|./.c  .p x x = 9 I Y I U F D ~ I I I K 5 J I T U I 6 U U U K F i i | p i p O.F.V.F.U.F.",
"N.(.{.@X.X{.E X.x M p = 0 I U D K D D W U I I K 5 J U U U I 6 I F H K S i i N x c i <.`.P.m.c.s.",
"n..X.X X}.U.b M M x p = 9 K I d F P G T K I ~ K 6 I U I U I 5 D a s J > * y N M c e ,.}.Q.[.Y.y.",
"I.@X.X.X.XG.l w e w w * , F 1 $ 5 P D T U I ~ I 5 I T U U U 5 4 o o $ O   = i w w % :.^._.W.XX<.",
"R..X.XOXOX^.v  .M x z = , s * & $ 5 5 S D D P f 1 S D S D S : # = & # % 3 i | M x p -.^. XQ.Y.C.",
"f.Q.Y.^.{.G.b  .c c p = , q = & . X # @ # # # # & # # # # # # # x w . . i i N x c j ;.^.T.Y.Y.C.",
"D.(.P.C.S.N.b M c x 9 = 0 5 X X . # $ $ < < < < = < < < < % # O & & O % w * p c x i -.S.m.C.{.P.",
"I. X X_.P.n.k e e e * * < S $ o + L S I I U U U 5 K I T U J 2 $ o o : O   # w y e w +.c.D.T..Xm.",
"P..X.X X.X_.k p M p 8 = , I D f G P 6 U U U T P 5 K H T T H 5 g 6 B J > 8 * j x p * o.S.P..X.XC.",
"F..X.XW.{.'.v N | c x = , U W T I P f I P U ] K s K I T U J d P ] T U 6 y i | c c e *.P.[..X.XV.",
"L.}..XU.'.~.b X.M c z = r g 5 5 5 5 1 d 5 d d 5 1 d 7 f d 5 5 5 d 7 6 h p i / c c i =.'..X.X.Xn.",
"P.{.}.{.{.!.l  .n c p t x.S.s.a.;.y.C.|.'.^.W.i.N.{.^.'.'.Y.^.S.a.M.n.f.@.e c c c i :..X.X.X_.a.",
"Q..X{.^.G.!.-.b k c v y.U.m.m.Q._.|.P.Y.U.'.'.m.~. X'..X X^.^.Q.B.Q.[..X).*.v c h ` E..X.X.X!.u.",
"R.^.!.T.W.m.m.m.G.W.d.s.C.Y._..XOX).].I.m.W.U.m.F.^.W.E.~.Y.N.m./..X.X#XOX'.~.Q.Y.n.T.W.!.!.S.u.",
"a.m.V.s.S.F.u.a.M.c.d.a.n._.oX+X.X X.XQ.n.c.d.u.a.n.d.d.c.v.c.y.`.OX.XoX.X.X.X.X_.b.u.u.u.u.u.y."
};
