/* XPM */
static char *result[] = {
/* columns rows colors chars-per-pixel */
"48 48 73 1 ",
"  c #705F54",
". c #736155",
"X c #766458",
"o c #79675A",
"O c #7C6A5C",
"+ c #7D6D61",
"@ c #886D5F",
"# c #847365",
"$ c #8A7766",
"% c #8B7967",
"& c #87766A",
"* c #887769",
"= c #8D7B6B",
"- c #917867",
"; c #927E6C",
": c #987D6C",
"> c #8F7E71",
", c #917F71",
"< c #94816E",
"1 c #9A846E",
"2 c #958473",
"3 c #9A8673",
"4 c #9C8976",
"5 c #968678",
"6 c #998779",
"7 c #9D8B7B",
"8 c #A18C76",
"9 c #A28E7B",
"0 c #A4927D",
"q c #AA957E",
"w c #AC987E",
"e c #9F8E80",
"r c #A18F81",
"t c #A49383",
"y c #A99682",
"u c #AC9A84",
"i c #A79789",
"p c #A89788",
"a c #AD9C8A",
"s c #B19E85",
"d c #B19E8B",
"f c #AFA08B",
"g c #B3A286",
"h c #B4A38B",
"j c #B8A68D",
"k c #B7A88C",
"l c #BBAB8E",
"z c #B5A491",
"x c #B8A693",
"c c #B7A892",
"v c #BCAC93",
"b c #B6A799",
"n c #BDAD99",
"m c #BFB193",
"M c #BFB199",
"N c #C0AF93",
"B c #C0AF98",
"V c #C2B395",
"C c #C6B897",
"Z c #C8B997",
"A c #C3B49B",
"S c #C7B999",
"D c #CBBD9C",
"F c #C6B7A2",
"G c #C7B8A2",
"H c #CBBDA2",
"J c #CDC19E",
"K c #CEC1A2",
"L c #D1C5A5",
"P c #D3CAA5",
"I c #D3C6A9",
"U c #D5C9AA",
"Y c #D8D0AA",
/* pixels */
"5ahazf#776tp3KJDJJDg5te79e77e7r=AJJDJVSma<56790&",
"aLKJDfpzhhsqzKJDJvJh3zlVVLVvy89rVCDJVhgq5aVLVVn6",
"hJDVltdSNZDNaADDJul0;jLDDSSVZBjthmVvu012dkDJDZh6",
"fguwj0uVDDZC:hASC84uodvDDZDZDZx67000384cSSDvNCh;",
"a0$00asSDDNZ4yudq0=6aasZDNZDgs0.<===<ofcvDJZVhV-",
"=hc14hVDZDZk0030=<alnzuDDhjsq477cAhnct5iauwNgN8<",
"vAla*BvDNZVq1;2*azmDKbujZs0y5uxpkKSDSc7ha7t40:83",
"HJgn0aDZNZq33#zADvDSHni0w862hSjtuKSSKMegDVdt982v",
"KZlKM7cVkg0=aMVDDZJVDStus=aHDSa4gZjlDhtAJDZHM&lv",
"DDVJKc9a09&aBADJJJDDVJA==dDDDg09cSlNZk6AJHVSh7ZD",
"JDSDlkz#0zBa5qhDDCJClVk5xNVlkh3tjSlDkV00DDjVh7DD",
"SVVk109pGIDLH72u8skua47#0,4te79+hDlDsVg2vCSV8tDJ",
"CVf982AUDKDDJDn2=5514tkMf7iaannAetahsuh2hsws1uvS",
"Mkf29KIJPKJDDDHa4vulglJKlfrHKKLKSc<tuqu*22899t3m",
"fuoeMIKPYPJJDlm4mPKJmJJKDh7MKDGHDHc50403hBsa7777",
"=5a=fJPKPYJJDl0<cPJJlJZPmc7cDHJGHZKh7402BHZIVhu7",
"7AKf7VJDPPJJDsq6DJKgVDDKCg6AJDDJLZDKht25AJJVDDS0",
"7KKU3tSDJZJJmt86KKCMVDJDk0;FvJJDLDvSV6uiGDJZmJS0",
"tKSJG5ugksau042tPPJJCDJChh;bFIJCJLVhBv0hLDDJSlm7",
"tKSCSj2u040813XdcJDDDVJCCl06bnDZDDDlsv1hDSmVKkg4",
"tKJVmk3uyttrxnct2yVmDmlfwu2 +cFCZZDZVs2xngghhay9",
"eLDJllw7vDDCDZHAc754mla92=rna7uSNkVDZu4nuuf004<#",
"tKJDmqq9pBDDCVZLGkz7<2<=jAAFn+0lklVCDq;5**=6wzhi",
"tKChu49=#hZDDVCZKKVha*MVSSIAA9%9uhjvV0yhAKHvCKDy",
"tau0**6nBeAHDCDDVLDs2yIDSVIJDu2p628ds87hgDKDDDLp",
"62=ozSZJIztvDkDJlhVw,jLDlVVCDl%tAhy94u2nJJDDDKlr",
"=txpSDJDKAtaZlVvhw84tNZZCkLDJZy7BNuya4,aKDJJDVt2",
"sCByHDJZCDh7ysugq9uOnLCZJVSDDCw4ADDDLBvxaDVSVp9y",
"SDctDCJZCZha#6999tr7FLBZDJhuus84pASDDPLupvkg03HH",
"HDhhJDZDDDg0AHSZDKbnhDVDDDZglqq$3cKSVLJq5wc16hDH",
"mChaDDDDZJ95HDZZDhrtzxdDKDVjw32aabZLZDDs38q30ZDD",
"mu75ggkvhg1aAKNDDu7xat0uskqq=tvgAavNDvlh7142KJDS",
"g0tc978ss94ALCVgw0amLSa*t032cUDZHaAjVkkh18;aVmmm",
"3ynUAB741utJDgZ13*vJDSakn52VDUZHKcj0shksOt2t40y0",
"4jVJHDZhr aVVyq200DJDvyfLAtDJPvJDVay00977HAnt52-",
"2DJDVgDDhar9099sstHJa0vhDItFDJCZDl9,dvnAvHZZgna%",
"yLDDDgNDdydt;yxNl0JD09klDZSpKDDZDZ86HDJJZDZllhF+",
"aDDDDVwD9ynSvSDlgwJh>hCmDVl4HDDCvD9%LUDDJJNNDga7",
"2fsvVgwq7VCZCgkZ0aDw2nJCSSj4yGDDuh1oHLJDJJVkgaa7",
"7ct780s09NCDZVhj8hS070ulSl92*auhgs; AZDZZDv837M0",
"tZDcu62;28t8t4sh9jDg75u9014hch34yd7 yggjlk219aD3",
"tJDZDApzVnhuAy9s0klg6VDBa#pSVKA<:38 ty93:1@90ZD7",
"0DDgvDdxZZDDZV8:7uf5cZJSa0clZJUaycdttaa#0yaumDD6",
"tVDuNVulDZSV0N8<<04vJJZ03nJDDCLahSSSAzr#hjbmDDJ2",
"tVVCVN8NZDZlku13+<aIJDm2uLDDJlDa20770hSHyCvJDDv=",
"hDClsh8lDDZqq84dnmeauvm4hDvDZlld5hAHNkSBtvDJDDh=",
"dlhss84sCV9:6anDDlnp3gu30khghh4<zDSUDDDDA7ggkl9-",
"=33;89=;3;;;3BHDJZDh5;<*=1;;<3<$nJJDJDJDn2=%%%-O"
};
