/* XPM */
static char *result[] = {
/* columns rows colors chars-per-pixel */
"48 48 143 2 ",
"   c #020202",
".  c gray6",
"X  c #111111",
"o  c #1C1C1C",
"O  c #202020",
"+  c #393939",
"@  c gray27",
"#  c #5A5652",
"$  c #5E5A55",
"%  c #5F5F5F",
"&  c #615C56",
"*  c #625F5A",
"=  c #6B6457",
"-  c #65615C",
";  c #6D665B",
":  c #766A57",
">  c #70675E",
",  c #72695E",
"<  c #7B6D5A",
"1  c #656465",
"2  c #686765",
"3  c #686768",
"4  c #6C6B6B",
"5  c #746D63",
"6  c #716F6E",
"7  c #7C7365",
"8  c #77726B",
"9  c #7C756B",
"0  c #7E786E",
"q  c #767472",
"w  c #7C7976",
"e  c #777778",
"r  c #7E7E7E",
"t  c #837664",
"y  c #857866",
"u  c #8C7D65",
"i  c #807668",
"p  c #837B6D",
"a  c #8B7D6A",
"s  c #907F69",
"d  c #847D73",
"f  c #8C7F70",
"g  c #827E7A",
"h  c #8C806E",
"j  c #928167",
"k  c #94846C",
"l  c #98866F",
"z  c #99896E",
"x  c #878176",
"c  c #8B8275",
"v  c #84807A",
"b  c #8A8278",
"n  c #948472",
"m  c #998773",
"M  c #978974",
"N  c #9C8B74",
"B  c #908578",
"V  c #998678",
"C  c #94897A",
"Z  c #9C8D79",
"A  c #9E9075",
"S  c #9C927D",
"D  c #A18F77",
"F  c #A18F7D",
"G  c #A19176",
"H  c #A4947C",
"J  c #A8977D",
"K  c #A7987E",
"L  c #A9997E",
"P  c #7E7E80",
"I  c #868686",
"U  c #8A8683",
"Y  c #8D8983",
"T  c #8D8C8B",
"R  c #948D83",
"E  c #9F9686",
"W  c #92908E",
"Q  c #959493",
"!  c #999796",
"~  c #9A9997",
"^  c #9C9B9B",
"/  c #A59582",
"(  c #A99683",
")  c #A69A83",
"_  c #AC9C83",
"`  c #A79B89",
"'  c #AF9E89",
"]  c #B19F87",
"[  c #B09E8B",
"{  c #AFA085",
"}  c #ADA18C",
"|  c #B1A286",
" . c #B3A38B",
".. c #B8A78C",
"X. c #B6A88A",
"o. c #BAAA8E",
"O. c #B6A591",
"+. c #B9A791",
"@. c #BCAC93",
"#. c #BEAC99",
"$. c #BFB093",
"%. c #9F9FA1",
"&. c #A1A1A1",
"*. c #ADADAD",
"=. c #B0AFAF",
"-. c #B0AFB1",
";. c #B4B4B4",
":. c #B8B7B6",
">. c #B5B5B8",
",. c #BDBDBD",
"<. c #C0AF95",
"1. c #C1AF9C",
"2. c #C2B296",
"3. c #C4B49B",
"4. c #C8B79C",
"5. c #C7B89B",
"6. c #CABA9D",
"7. c #C7B7A1",
"8. c #C8B6A1",
"9. c #CCBCA2",
"0. c #CDBCA8",
"q. c #D0BEA8",
"w. c #CEC09E",
"e. c #CEC1A4",
"r. c #D1C4A5",
"t. c #D3C3AA",
"y. c #DACDAB",
"u. c #BEBEC1",
"i. c #C4C4C5",
"p. c #C6C6C9",
"a. c #CACACB",
"s. c #CDCDD0",
"d. c #D2D2D2",
"f. c #D7D7D9",
"g. c #DADADD",
"h. c #DFDFE2",
"j. c #E3E3E5",
"k. c #E7E7E9",
"l. c #ECECEE",
"z. c #EEEEF1",
"x. c #F3F3F3",
"c. c #F7F7F8",
"v. c #FEFEFE",
/* pixels */
"H X.+.O.#.} V R H H H J L 6.6.w.6.9.9.o.F J / J ( ] D J D D H D o.w.6.6.9.3.3.@.H N G H H _ ( f ",
"X.6.9.0.7.O.( O...] ....] 4.r.6.6.3.6.o./ [ <.<.<.4.<.o.] _ ( H o.5.r.6.2. . ./ Z _ 2.3.3.<.O.H ",
"o.9.7.3.<.( [ 1.2.4.6.<.L 2.q.9.3.....( N [ 8.0.9.8.4.4.3.1.O./  .+.@.#._ F Z N ) @.6.9.6.4...D ",
"+. .} _ _ ( ] <.4.6.4.<.J ] <.9.2.J G l a F ..2.<.1.3.<.3.1.[ V / _ ( _ H Z / O.5.6.8.3.<.4.] j ",
"_ / D D F _ <.2.6.6.4.2.F / ( ' J z k t , > 5 p p 9 i d V ( V y N D m m Z f H O.3.3.6.6.<.@. .k ",
"N .._ z H ] <.4.6.w.2...H Z E Z u y a d 6 4 4 6 6 4 4 4 9 f N s  .X.'  .` Z H ' ' _ ] @. .] D m ",
"+.3.o.J l ..2.4.2.6.o._ D n f n t * 2 ~ a.s.d.s.s.d.s.a.Q 5 V F o.6.6.9.7...) X.' / H D J Z m V ",
"6.9...<.L ] 4.4.2.2.L m k s Z b Y ~ &.a.x.v.c.v.c.v.v.x.a.! d y L 6.6.3.9.+.K o.3.@.] ) H N F O.",
"w.6.<.6.#.) X.$.o.{ N z J  .C g =.k.x.c.v.v.v.v.v.v.v.v.x.f.T 5 A $.o.$.6.X.H o.9.6.4.6.[ D [ 1.",
"w.6.2.w.9. .) ) S A l H ) c v ,.k.v.v.v.v.v.v.v.v.v.v.v.v.x.d.Q 9 ) X.2.6.o.N o.r.6.2.5.] J 4.4.",
"w.6.6.6.@.+.) n )  .o.S 7 v *.j.v.v.v.v.v.v.v.v.v.v.v.v.v.v.x.a.~ x Z @.@.@.H J 4.6.<.<.] J 4.q.",
"6.2.2.| A H H ) #.e.$.E g *.l.v.v.v.v.v.v.v.v.v.v.v.v.v.v.v.v.c.d.T v `  .@.} H <.2.2.<.G J 4.6.",
"6.<.| J M H @.e.e.9.C 0 :.k.v.v.v.v.v.v.v.v.v.v.v.v.v.v.v.v.v.v.x.f.W 5 Z ` _ m J L | | z J <.3.",
"@.X.J Z H 5.y.r.r.6.x 4 s.c.v.v.v.v.v.v.v.v.v.v.v.v.v.v.v.v.v.v.v.l.^ # B / / k G G z D k m J <.",
"H Z y m @.r.r.r.y.w.0 4 d.c.v.v.v.v.v.v.v.v.v.v.v.v.v.v.v.v.v.v.v.x.^ $ a V Z Z .. . .] F D F ( ",
"m / F Z } 6.e.r.r.w.p e d.c.v.v.v.v.v.v.v.v.c.z.x.c.v.v.c.z.x.c.v.x.&.- i m Z D #.0.4.9.8.O.( F ",
"` #.0.| G 2.w.6.2.S R ;.k.v.v.v.v.v.v.v.v.x.,.I I ,.c.c.,.I I ,.x.x.a.Q 0 y k H 5.e.6.3.6.6.2._ ",
"/ 9.e.5.G G 2.6.} - ^ k.v.v.v.v.v.v.v.v.x.i.4 o O I z.x.Y O o 2 i.x.x.u.4 5 m _ 7.0.q.6.2.6.2.J ",
"] 6.w.w.2.A { X.M & ^ x.v.v.v.v.v.v.v.x.i.% o   . v z.z.r X   o % i.l.i.3 5 H } r.6.6.6.5.2.X.H ",
"| 6.6.5.w.L z G y $ ^ x.v.v.v.v.v.v.c.,.4 O     . r z.z.r .     O 4 >.,.4 5 m  .6.2.2.6.6.o._ G ",
"| 6.6.5.$.o.N G n & ^ x.v.v.v.v.v.v.z.I o       X g z.z.r X       o r >.4 5 n X.@. .| | o.| K A ",
"L r.6.6.@.X.) G M - ^ x.v.v.v.v.v.v.z.P X       o U x.z.I o       . e >.4 , M ' J G H H L G A k ",
"_ 0.9.6.+.) L M h * ^ x.v.v.v.v.v.v.x.v X   . O 4 ,.c.c.,.4 O     o e >.3 ; a M Z N H G L { { A ",
"[ 0.3. ._ A M k 7 & ^ x.v.v.v.v.v.v.x.^ @ + + % p.x.v.v.x.p.1 + + @ Q >.4 > M _ @.6.6.@.5.6.$.{ ",
"` [ J N n m D [ S $ ^ x.v.v.v.v.v.v.c.j.i.i.i.d.x.v.v.v.v.x.d.i.p.p.g.u.3 ; Z X.#.0.t.7.9.9.6._ ",
"N N z k _ #.3.9.} - ^ z.v.v.v.v.v.v.v.v.c.v.c.c.v.v.v.v.v.v.c.c.c.c.x.i.2 = k @.9.7.9.9.9.e.$.J ",
"k H | L 3.9.0.8.} - ^ x.v.v.v.v.v.v.v.v.v.v.v.v.v.v.v.v.v.v.v.v.c.x.z.i.3 = k X.9.0.9.0.6.$.L z ",
"..2.X.L 6.6.9.3.K - ^ x.v.v.v.v.v.v.v.v.v.v.v.v.v.v.v.v.v.v.v.v.c.z.l.i.3 9 } { } 7.7.9.2.H G J ",
"6.w.o.L 6.6.6.5.) - %.x.v.v.v.v.v.v.v.v.v.v.v.v.v.v.v.v.v.v.v.v.v.z.l.i.3 h 5.L K @.@. .J D 3.6.",
"6.6.| | 6.6.6.5.) - ^ x.v.v.v.v.v.c.v.v.v.v.v.v.v.v.v.v.v.v.v.v.c.z.l.i.4 p 5.L N _ ' Z m ] 9.9.",
"2.@.{ | 5.5.5.5.) - ^ x.v.v.v.v.c.x.v.v.v.v.v.v.v.v.v.v.v.v.v.c.z.z.l.i.3 9 2._ l S H m ( 4.q.9.",
"@.] G A L X.X.X.M & ^ x.v.v.v.c.c.x.v.c.c.v.v.v.v.v.v.v.v.v.v.x.l.l.l.i.4 7 X.| D m m D 3.9.6.6.",
"' H )  .) G D ) k $ ^ x.v.v.v.z.x.v.v.x.z.v.v.v.v.v.v.v.v.v.c.z.z.k.z.i.4 7 { { z m k / #.3.#.#.",
"z H @.q.2. ./ Z y # ^ z.v.v.c.x.x.v.v.x.x.c.v.v.v.v.v.v.v.v.x.z.z.z.z.i.2 5 ' ' u H H H Z / / / ",
"Z  .3.r.0.6.5.' a # ^ x.v.v.x.z.c.v.c.x.z.c.v.v.c.c.v.v.v.c.z.z.z.z.l.u.2 ; A H K 3.@.+.J Z k s ",
"D 2.8.6.5.+.7.7.Z # ^ x.c.x.z.x.c.c.x.z.x.v.v.v.x.c.v.v.v.c.z.k.k.z.z.i.4 5 { o.$.6.6.3... ._ a ",
"| 6.9.9.8.o.@.5.M * ^ k.x.z.x.c.v.c.z.x.c.v.v.v.x.x.v.v.x.z.h.h.z.z.k.u.6 f 3.w.6.6.3.2.2. .+.j ",
" .6.6.9.9.@.| @.Z 9 b *.g.z.c.v.v.x.z.x.v.v.v.c.x.c.v.v.x.j.f.h.k.k.u.T v ' 6.9.e.e.2.2.3. .| G ",
"N |  .o.@. .J L G } b g -.h.v.v.x.l.l.x.v.v.v.v.z.x.v.v.x.j.s.f.h.p.T - ` 0.9.9.9.9.2.+.{ J | H ",
"H | L H G J ) G G o. .Z w *.k.z.z.z.z.x.x.v.v.c.z.z.z.x.z.h.i.s.i.I 2 :  .4.6.8.9.6.@.A N J o._ ",
"{ 3.3..._ G z z D J J m i g ~ &.a.x.z.a.;.j.c.l.f.>.-.g.z.d.Q I U 9 t < H  . . . . .N k Z | 2.H ",
"| 8.8.6.6.<.J ] @.o... .' t $ * Q a.a.Q w :.a.,.%.w q *.i.*.q # & p n < k ) Z m N z u N J 2.5.H ",
"_ 5.9...2.5.| @.6.4.6.4.4.` a t 8 4 4 0 n w 4 2 * 5 c q 4 e / B n O.' / _ ' H k A H H  .#.7.7./ ",
"H 2.4. .#.<.] @.9.9.4.@.] ..D a < > > C +.C 9 ; ; Z O.B p B +._ [ 1.3.#.@...H n _  .O.2.4.9.3.Z ",
") 3.3.2.2.<.G +.4.9.4.<...( D k a a H 5.9.3.X.k H 4.8.5.<.+.3.] F H / / J ] ..@._ <.3.6.9.0.+.k ",
"+.0.3. . ...J ..9.9.<._ ( D D ] #.' _ } { +.o.N } 6.2.5.9...+./ Z ] @.9.2.o.4.2.] ..6.4.9.3.] k ",
" .+. .) L D D J <.<.J s D ( ..8.7.3.@.K N ' _ z J o.]  ...] H H  .4.9.t.9.6.9.6...G L ....] J s ",
"m G Z m J G s l D l k s D +.0.q.0.7.7.o.N k k j k z m l N Z k k  .9.6.q.9.q.6.6.2.z s l s s s u "
};
