/* XPM */
static char *result[] = {
/* columns rows colors chars-per-pixel */
"48 48 210 2 ",
"   c #4C2A1A",
".  c #542B18",
"X  c #5A311C",
"o  c #632C14",
"O  c #6B2E13",
"+  c #712F13",
"@  c #6E391F",
"#  c #7A3112",
"$  c #783516",
"%  c #543928",
"&  c #683D28",
"*  c #5A4638",
"=  c #774329",
"-  c #784A2F",
";  c #6D4A36",
":  c #744A37",
">  c #7C4F37",
",  c #79543D",
"<  c #6B5041",
"1  c #775846",
"2  c #6F6054",
"3  c #746255",
"4  c #7A6657",
"5  c #7C6A5D",
"6  c #7E705B",
"7  c #7E6E62",
"8  c #862E06",
"9  c #8B360F",
"0  c #9A370C",
"q  c #863714",
"w  c #943D14",
"e  c #9D3D15",
"r  c #A93B07",
"t  c #AB3C0B",
"y  c #B93C09",
"u  c #A63C11",
"i  c #8B451F",
"p  c #994418",
"a  c #B7470E",
"s  c #BB4B0C",
"d  c #A74615",
"f  c #B54B17",
"g  c #AF571E",
"h  c #BA5519",
"j  c #884523",
"k  c #814A2D",
"l  c #845135",
"z  c #84563A",
"x  c #A15221",
"c  c #C6440C",
"v  c #D2430A",
"b  c #DC500D",
"n  c #CA4413",
"m  c #DC4A13",
"M  c #C45B15",
"N  c #C45A17",
"B  c #D75514",
"V  c #DF5A11",
"C  c #E05E0F",
"Z  c #E54D14",
"A  c #EA4E16",
"S  c #EA4E19",
"D  c #E55315",
"F  c #E55A14",
"G  c #EE5A1B",
"H  c #F3541C",
"J  c #F9561F",
"K  c #F35A1D",
"L  c #C8651A",
"P  c #DA6414",
"I  c #D66718",
"U  c #DB7718",
"Y  c #E46416",
"T  c #E36B16",
"R  c #E56319",
"E  c #ED641D",
"W  c #E36B1A",
"Q  c #EA6B1D",
"!  c #F2631F",
"~  c #E1731B",
"^  c #ED731A",
"/  c #E37B1D",
"(  c #F0701B",
")  c #F27B1B",
"_  c #FD5622",
"`  c #FC5A22",
"'  c #DB7C22",
"]  c #EE6B21",
"[  c #F56421",
"{  c #FA6223",
"}  c #F36B22",
"|  c #FC6A26",
" . c #FE6D28",
".. c #EA7822",
"X. c #F27523",
"o. c #F97226",
"O. c #F17D21",
"+. c #FD7429",
"@. c #FD7B2B",
"#. c #825C41",
"$. c #86644C",
"%. c #876A53",
"&. c #856E5C",
"*. c #8C6E5C",
"=. c #8B735E",
"-. c #836E61",
";. c #847364",
":. c #8B7663",
">. c #8B7966",
",. c #877669",
"<. c #887768",
"1. c #8D7B6B",
"2. c #937B64",
"3. c #927D6C",
"4. c #987D6C",
"5. c #8F7F71",
"6. c #927F71",
"7. c #E4841D",
"8. c #F1881F",
"9. c #E68322",
"0. c #EA8425",
"q. c #EA8A25",
"w. c #EB8B26",
"e. c #EE8E2A",
"r. c #F48922",
"t. c #F58429",
"y. c #FD832D",
"u. c #F28C2A",
"i. c #FC8B2F",
"p. c #EA9324",
"a. c #EC9A26",
"s. c #ED982A",
"d. c #F79528",
"f. c #F3932D",
"g. c #FE8D30",
"h. c #F79530",
"j. c #FD9432",
"k. c #F69C31",
"l. c #FD9C34",
"z. c #EDA42B",
"x. c #EEA92D",
"c. c #F7A62A",
"v. c #F1AD2E",
"b. c #F5B02F",
"n. c #FDA336",
"m. c #FCA937",
"M. c #FDA638",
"N. c #FEAB38",
"B. c #F3B531",
"V. c #F5BB33",
"C. c #FCBA33",
"Z. c #F7C136",
"A. c #FCC336",
"S. c #FCC738",
"D. c #FDCC3B",
"F. c #FED13D",
"G. c #95816D",
"H. c #9A846E",
"J. c #9D896F",
"K. c #8F8070",
"L. c #958473",
"P. c #9A8573",
"I. c #9C8A75",
"U. c #968678",
"Y. c #998779",
"T. c #9D8B7B",
"R. c #A18C76",
"E. c #A28E7B",
"W. c #A4927D",
"Q. c #A9957D",
"!. c #AC987F",
"~. c #9F8E80",
"^. c #A18F81",
"/. c #A49383",
"(. c #A99683",
"). c #A79982",
"_. c #AC9A83",
"`. c #A89789",
"'. c #AC9C8A",
"]. c #B19E86",
"[. c #B19F8B",
"{. c #AFA188",
"}. c #B3A286",
"|. c #B4A38B",
" X c #B8A68D",
".X c #B7A88C",
"XX c #BBAA8E",
"oX c #B4A491",
"OX c #B9A692",
"+X c #B7A891",
"@X c #BDAC92",
"#X c #BEAE99",
"$X c #BFB192",
"%X c #C0AF93",
"&X c #C0AF98",
"*X c #C2B395",
"=X c #C6B897",
"-X c #C8B997",
";X c #C3B49A",
":X c #C7B999",
">X c #CBBD9C",
",X c #C7B8A2",
"<X c #CBBDA2",
"1X c #CDC19E",
"2X c #CEC1A2",
"3X c #D1C5A5",
"4X c #D3CAA4",
"5X c #D3C6A9",
"6X c #D5C9AA",
"7X c #D8D0AA",
/* pixels */
"U.'.|.'.|.oX7 T.T.Y./.`.Y.2X1X>X1X>X>X}.L./.E.Y.E.^.T.T.~.I.^.1.;X1X1X1X>X*X*X$X_.L.Y.Y.Y.W.^.,.",
"'.3X2X1X>X|.`.oX|. X].Q.|.2X1X>X1X%X>X XY.oX@X*X*X3X*X@X_.R.E.^.;X-X>X1X$X}.|.).U.'.*X3X*X*X%XT.",
"|.>X>X*X@X/.|.:X$X*X>X*X'.;X>X>X1X_.XXQ.3. X3X>X>X*X-X*X-X%XOX/.|.@X$X@X_.W.J.L.[..X>X>X>X>X}.U.",
"|.|._.Q..XW._.@X>X>X-X*XL.[.;X-X-XR.P._.5 [.XX>X>X>X>X-X>X:XOXI.T.Q.W.W.P.R.I.+X=X=X>X@X%X*X X3.",
"_./.:.W.W.'.].=X>X>X*X-XR.`._.].Q.W.1.Y.'.'.].-X>X%X-X>X[.].Q.3 K.1.1.1.1.5 oX+X$X>X>X=X*X}.*X2.",
"1.|.+XL.I.|.*X>X-X>X-X XE.W.P.W.K.1.'.+X;XoX_.>X>X|. X].Q.Y.T.Y.@X;X|.#XoX/.L.`.[.`.].%X X@XR.G.",
"#X*XXX_.1.#X@X>X*X-X;XQ.J.3.L.,.'.|.*X>X<XoX'. X-X].W.(.L.'.+X`..X2X=X2X:X+XT.|.'.Y.W.R.W.4.I.Y.",
"<X2X}.#XW.'.>X-XXX-XQ.4.P.;.oX,X<X@X>X=X<X#X`./.Q.R.I.L.|.:X.X/._.1X:X:X2X#X~.|.>X;X|.^.R.E.P.OX",
"2X-XXX2X#XE.+X*X.X}.E.1.'.#X*X>X1X=X1X$X2X:X/._.].;.'.<X:X*X{.U.}.>X XXX>X|./.;X1X>X-X<X#X,.XX%X",
">X>X*X1X2X.X~.'.W.W.,.'.*X;X>X>X1X1X1X1X*X=X_.2 * * 6 $X1X|.W.W.@X:XXX@X-X.XT.$X1X<X*X-X|.T.-X>X",
"1X:X=X>XXXXXoX,.W.oX;X'.I./.}.>X=X-X1X*X'.3 %   . . & )..X|.P.E. X=XXX>X X*XW.W.>X>X X;X}.^.>X>X",
">X;X*X.XL.W.E./.,X5X>X2X<XT.L.).I._..X!.=.  o o O o % 5.T.T.T.;.|.-X.X>X].*X}.L.@X*X=X*XR.^.>X1X",
"*X*X{.W.R.U.:X5X<X1X1X1X:X>X$XL.1.G.K.<.* o $ # # + . 5 /.'.oX#XW.~.'..X}._.[.G. X_.].].H.`.XX-X",
"$XXX_.L.~.2X5X1X4X2X1X1X1X=XXX&.; > = - X O $ # # # o & , l z %.G./.K.W.'.Q._.1.U.G.R.R.E.(.I.$X",
"{._.5 ~.@X5X2X4X7X4X1X1X*X=.- 9 a L M s r 0 q 8 9 0 r s M M s t w > ;.5.W.J.W.L.|.&X'.'.T.T.T.E.",
"1.U.`.5.{.2X5X2X4X7X1X*XG.$ L P q.N.m.w./ I h h M / ~ q.m.m.e.P P s 9 1 L.I.Q.U.%X>X-X5X*X|.(.Y.",
"T.$X3X'.~.$X1X1X4X4X1XR.j ' s...m.N.m.e.m.m.n.l.m.N.k.0.m.N.m.q.q.s.M w %.T.L.L.=X>X1X*X>X>X>X/.",
"~.2X2X5XU.Q.-X1X1X-X%Xz L M.9.h.m.m.k.k.m.m.m.m.m.m.n.0.k.m.m.k...k.h.I q &.`.`.,X>X>X>X%X>X-XE.",
"/.<X:X1X:XU._.|. X!.:.p k.k.0.l.M.m.f./ r.M.M.M.m.n.M.u.~ 0.n.M...e.M.f.f $.I.|.5X>X>X1X>XXX$XE.",
"`.2X1X*X>X|.G._.W.I., L n.k.u.M.n.l.0.7.^ h.n.n.n.n.n.0.7.^ t.n.f.t.n.n.' j &.[.>X-X%X*X1X.X}.Y.",
"~.2X1X$X$XXXL.`.(.L.j 0.l.l.g.l.l.u.p.S.r.O.l.l.l.l.h.0.Z.c.( h.h.u.l.l.i.d 1 OX#X}.}.}.|.{.(.T.",
"/.3X1X1XXXXXQ.R.XXW.x h.l.l.j.l.j.9.B.F.b.^ j.j.l.k.t.a.D.A.) t.j.j.l.l.h.N : oX_._.'./.W.I.3.;.",
"`.3X1X>X$XQ.Q.W.`.>.g j.j.j.j.j.t.q.S.D.A.) t.j.h.i.0.B.D.D.d.) j.j.j.j.j.I $ ,.1.1.1.U.).oX.X'.",
"/.2X*X}._.R.T.1.-.&.h g.g.g.g.g.O.s.D.D.D.r.) j.i.i./ Z.D.D.c.( g.g.g.g.j.Q q L.*X<X<X@X=X2X>X/.",
"^.{./.Q.1.1.Y.#X;X1 N g.g.g.g.g...a.F.D.F.d.( g.i.t./ D.F.F.B.( y.i.i.i.g.X.w 2.}.1X2X>X>X>X3X`.",
"T.G.1.4 oX*X=X1X3X$.h g.y.y.y.g.X./ z.v.v.7.Q y.y.@.~ a.v.v.p.Q t.y.y.y.y.X.p 4.1X1X>X>X>X2X X^.",
"1./.#X`.>X-X1X>X3X*.h @.@.@.y.@.@.X.Q R R Q @.@.y.@.X.Q W R Q X.y.y.@.y.y.X.p -.2X>X1X1X>X;X/.L.",
"_.*X#X(.<X>X1X-X*X2.f @.@.@.@.@.@.@.@.@.@.y.@.@.@.@.@.@.@.@.@.@.@.o.@.@.@.] p 6.'.=X*X-X*X`.E.(.",
"=X2X+X`.>X-X1X-X=XI.d o.+.@.o.} E o.+.+.} } } o.@.o.E E E o.} E W F E +.@.R i G.`.+XXX}.W.U.>X>X",
">X:X|.|.1X>X>X:X-X_.i ! +.+.! P / Y } E ~ 7.T E  .} U a.T Y T q.a.V E o. .B l R.I._.+XH.Y.|.>X<X",
"$X:X|._.>X>X>X>X-X*X= B  .| [ W x./ W ~ v.D.d.Y ~ W z.F.b.a.z.V.8.b [  .} f %.!.Y.R.Q.P.Q.=X>X<X",
"$X_.T.U.].|..XXX}.].1 a [ { { K / b.V.B.V.Z.V.B.V.B.B.b.v.Z.S.a.C Z [ | K e H.|.I.H.I.L.2X>X1X-X",
"{.E.`..XT.Y.R.[.].E.:.i D [ G { K ~ v.p.T T ~ B.F.C.^ R B U / F G Z { { c k }..XG.R.1.'.*X$X$X$X",
"P._.#X6X=X&XY.R.H._.Y.%.u H S K { K F V H J F 7.z.p.F K D b G ` G D ` m 9 =.|._.5 /.L./.I.W._.W.",
"Y..X*X1X>X>X;X X^.3 '.W.= c Z Z ` ` H A ` ` J A D D H J S ` ` ` Z Z m 0 ; L.T.T.W.<X;X#X/.Y.L.2.",
"L.>X>X>X-X}.>X>X|.'.^.R.&.@ r v S ` H A ` J ` _ ` _ ` H Z _ ` _ v r q , T.#X$X$X@X<X=X=X].#X'.,.",
"(.3X>X1X>X}.%X>X'.`.|.`.1.1.; 8 y A H m H _ _ _ _ _ _ Z A J S c 9 z %.L.<X>X1X1X-X1X-XXXXX}.,X7 ",
"[.>X>X>X>X*X!.-XE.Q.#X=X+X:X{.%.= 9 u 0 u n m Z Z m n t u e j #.G.XXR.,.3X5X>X>X1X1X%X%X>X|.'.T.",
"5.|.'.%X*X}.Q.!.I.*X*X>X-X}.XX=XH.:.H.4 < , - i j - > , 3 U.{.*X!.|.H.5 <X5X1X>X-X1X*X.X}.'.'.T.",
"T.+X/.Y.R.W.].W.E.*X*X>X=X*X}.|.R.|.-XW.T.E.I.W.(.Q.P.H.1.'.Q.|.}.{.3.2 $X>X:X>X-X1X@XI.P.E.#XW.",
"/.-X>X+X_.Y.G.3.L.Y./.R.E.I.].|.R..X>X|.I.U.'.W.E.H.I.|.+X|.Y.I._.[.I.3 `.}.]. XXX.XP.G.E.'.>XY.",
"`.>X>X-X>X;X`.OX*X%X X_.;X`.E.].W. X@X].Y.*X:X#X'.,.`.=X*X2X;XG.3.U.I.3 /._.R.P.H.G.*.R./.-X>XY.",
"W.>X>X}.*X:X[.OX-X-X>X>X-X*XR.H.T._.'.L.@X-X1X=X'.W.XXXX-X1X6X'.`. X'././.'.`.,.Q.`.'.`.$X>X1XI.",
"/.*X>X_.$X*X`.XX<X-X=X*XQ.%XP.4.L.W.I.#X1X>X-XW.Y.#X1X1X>X*X5X'.[.-X:X>X;X|./.;.|.|.OX*X>X>X>XL.",
"/.*X*X*X%X%XR.%X-X>X-XXX|.].H.P.6 5._.5X2X:X$XG.(.3X>X1X>X@X>X_.Y.E.E.T.W.|.;X<X`.*X%X1X>X>X@X1.",
"|.>X*XXX}. XR.@X>X>X-XQ._.P.Y.|.#X#X/.'._.@X$XI.}.>X@X>X>X+XXX[.Y.}.;X,X%X X=X;X/.@X>X>X>X>X}.1.",
"[.XX X].].H.P._.*X*XE.4.I.'.#X-X>X@X@X`.I.]._.P.Q.XX}.|..X{.I.L.oX>X:X6X1X>X>X<X:XT.].}. XXXW.>.",
"1.P.I.3.E.E.3.L.P.G.3.3.L.%X<X1X1X=X>X|.U.G.1.1.1.G.3.3.G.G.G.:.#X1X>X1X>X>X>X>X@XL.1.1.:.>.1.&."
};
