/* XPM */
static char *result[] = {
/* columns rows colors chars-per-pixel */
"48 48 204 2 ",
"   c #040503",
".  c #080806",
"X  c #0C0A05",
"o  c #0B0C0B",
"O  c #110E05",
"+  c #0D100F",
"@  c #14130D",
"#  c #1A1508",
"$  c #1C1709",
"%  c #0E1211",
"&  c #051913",
"*  c #121613",
"=  c #181613",
"-  c #151916",
";  c #1A1914",
":  c #161B19",
">  c #1A1E1B",
",  c #241D0B",
"<  c #221F1A",
"1  c #09271D",
"2  c #1B211E",
"3  c #2C230D",
"4  c #352A0F",
"5  c #26231E",
"6  c #3A2E10",
"7  c #072E24",
"8  c #132721",
"9  c #1D2421",
"0  c #162E25",
"q  c #1D2A23",
"w  c #053429",
"e  c #083629",
"r  c #0C3529",
"t  c #17352C",
"y  c #19362D",
"u  c #063D36",
"i  c #0C3C32",
"p  c #183D32",
"a  c #212723",
"s  c #232A26",
"d  c #2B2B25",
"f  c #252D2A",
"g  c #2B2F2A",
"h  c #322E27",
"j  c #25322C",
"k  c #29322D",
"l  c #29382F",
"z  c #34322B",
"x  c #3A342B",
"c  c #3F392D",
"v  c #2C3631",
"b  c #2E3A34",
"n  c #313B36",
"m  c #3C3931",
"M  c #333E39",
"N  c #443612",
"B  c #493A13",
"V  c #443E35",
"C  c #074232",
"Z  c #0A4333",
"A  c #0A4C3B",
"S  c #1D4438",
"D  c #274138",
"F  c #294339",
"G  c #2B433A",
"H  c #36423C",
"J  c #38453F",
"K  c #344A3D",
"L  c #554317",
"P  c #5C4918",
"I  c #624D1A",
"U  c #68531C",
"Y  c #735B1F",
"T  c #4A4338",
"R  c #4A443B",
"E  c #524A3E",
"W  c #074D48",
"Q  c #0C5643",
"!  c #0B5B46",
"~  c #0D5D4A",
"^  c #3B4741",
"/  c #344A42",
"(  c #3D4B45",
")  c #3C5249",
"_  c #3B5448",
"`  c #0E634D",
"'  c #0F6D56",
"]  c #107159",
"[  c #0C776C",
"{  c #117760",
"}  c #127D62",
"|  c #0A7671",
" . c #404D47",
".. c #414F48",
"X. c #544C41",
"o. c #475647",
"O. c #45534C",
"+. c #48574F",
"@. c #5B5245",
"#. c #585447",
"$. c #485750",
"%. c #455951",
"&. c #4C5C54",
"*. c #4F5F58",
"=. c #505F58",
"-. c #605649",
";. c #665C4B",
":. c #635B4D",
">. c #655D51",
",. c #6A5F52",
"<. c #4F6058",
"1. c #5C6452",
"2. c #51625A",
"3. c #6A6153",
"4. c #6B6A58",
"5. c #726756",
"6. c #746A57",
"7. c #746A5A",
"8. c #786E5E",
"9. c #566760",
"0. c #576961",
"q. c #5A6C64",
"w. c #5D7067",
"e. c #5E7269",
"r. c #62766D",
"t. c #63786F",
"y. c #747665",
"u. c #7C7263",
"i. c #826722",
"p. c #837765",
"a. c #857A67",
"s. c #8D7D65",
"d. c #8B7E6B",
"f. c #138367",
"g. c #148B6E",
"h. c #0E867A",
"j. c #168F71",
"k. c #169374",
"l. c #189F7F",
"z. c #18A07F",
"x. c #87856F",
"c. c #928166",
"v. c #94846C",
"b. c #98866F",
"n. c #9A8A6E",
"m. c #8E8574",
"M. c #958671",
"N. c #998773",
"B. c #978875",
"V. c #9C8C74",
"C. c #9D8D79",
"Z. c #9D9178",
"A. c #A18F76",
"S. c #A18F7C",
"D. c #A19176",
"F. c #A4947B",
"G. c #A8977D",
"H. c #A7987E",
"J. c #A9997E",
"K. c #0D8681",
"L. c #18A482",
"P. c #19AA86",
"I. c #19AA87",
"U. c #19B28D",
"Y. c #14A893",
"T. c #18B795",
"R. c #1BBC95",
"E. c #1BC098",
"W. c #9F9984",
"Q. c #A59581",
"!. c #A99684",
"~. c #A69A82",
"^. c #AC9C83",
"/. c #AE9D89",
"(. c #B19F87",
"). c #B09F8B",
"_. c #AFA083",
"`. c #ADA38A",
"'. c #B1A286",
"]. c #B4A48B",
"[. c #B8A88C",
"{. c #BAAA8E",
"}. c #B6A491",
"|. c #B7A791",
" X c #BCAC93",
".X c #BEAD99",
"XX c #BFB095",
"oX c #BDB398",
"OX c #C0AF96",
"+X c #C1AF9D",
"@X c #C1B296",
"#X c #C5B49B",
"$X c #C8B79C",
"%X c #C7B89A",
"&X c #CABA9D",
"*X c #C7B6A0",
"=X c #C8B6A2",
"-X c #CCBCA2",
";X c #CDBCA8",
":X c #D0BEA8",
">X c #CEC09E",
",X c #CFC1A6",
"<X c #D0C0A6",
"1X c #D1C1A9",
/* pixels */
"F.[.|.}..X).B.Q.Q.S.H.J.J.&X-X&X&X,X%XZ.4.1.O.K S q g f f f g z X.!.&X&X-X#X#X.XH.V.V.J.F.!.!.d.",
"].&X;X=X=X}.!.}.}.'.[.].'.$X`.x.1./ u C A ] l.[ p ) 0.q.q.e.r.r.9.a F.-X#X].'.Q.V.^.#X#X#XOX].F.",
"{.,X*X#X.X!./.+X#X#X&X Xv.o.~ } g.g.} ' j.I.Y.u $./ O.&.O.J O.q.2.9 f u.^.C.C.C.^. X#X-X&X$X].A.",
"|.].`.^.(.!.^..X*X#Xc.m s u K.Y.U.l.j.f.L.U.| y ^ &.&.&.( H ( v s q.^ ,.S.C.Q.}.#X&X*X#XOX$X].v.",
"^.^.V.D.A.(.{.$XQ.z H e.0.H t W Y.U.R.R.T.K.i $.$.&.&.$.H 9 s =.&.9 = d < V Q. X#X#X-X&XOX{.].v.",
"B.].^.n.F.^.OX^.f q.q.&.M / ^ D h.R.Y.| u y O.$.( n a > J 2.H % % q ( *.2.s C.^./.^.(. X[.(.N.N.",
"|.#X|.J.n.].J.< H &.&.&.( O.&.O.r W 7 0 n k 9 > v  .O.b : a M &.&.O.M k *.> V._./.~.Z.V.J.C.N.C.",
"&X-X X{.^.^.7. .^ 9 : 9 9 : > > q > f b ^ ( n f * - > o f 2. .9 o   o - v 9 p.[.#X.X(.^.F.N.S.}.",
">X&X@X&X#XH.~.R - s v a - : * a s 2 * - : 2 s g f : O $ > 2.n n + l <.- q q 6.{.-X&X%X&X].N.).+X",
">X&X@X<X&X:.x 5 a M ( $.&.&.H - g k k k l f 2 @ . B , 4 3 =.^ g n % ) - q q ,.{.-X%X@X%X(.G.$X$X",
">X%X%X&X`.a $.$.M f > : a a O.X # o X @ O , , 3 $ i.6 P @ H O.o 2 0 2 + j 2 7.J.&X%XOX@X(.G.$X:X",
"&X%X@X'.M.s J 2 b k 2 -  .2 &.3 P N 4 U , U L , 4 P 6 L . 9 &.o * q b H K : a.F.OX%X@X@XD.J.$X&X",
"%X@X(.!.v.2 H l - M q o  .9 2.3 I B , Y $ Y N O 6 , N , - - G n H G q - d 3.Q.N.G.J.'.J.n.G.OX$X",
"{.[.Q.V.F.d b q : ( o : : * O.* B , . L O B .   , + ,   . . 2 * , . @ d./.!.Q.M.A.D.A.D.v.N.G. X",
"F.C.s.M. X#.H * * / 8 : 9 - K + : * : * - * : o   o     @ ; q.2., a a M.Q.C.C.C.'.[.'.'.S.S.S.Q.",
"B.Q.S.C.'.m.s 2 % : a v b j 9 . ; + + * o o X # % @ $ O.O.- q.r.% ( g B.V.C.A.S..X;X$X;X=X}.!.S.",
"/..X;X`.Z.'.5 K K j 2 + @ - v ; N 2 s 3 ; ^ - O $.&.o 2.2.s 2.0.M $.^ C.(.F.M.A.*X,X&X%X&X$XOX^.",
"~.-X<X$XH.H.:.h T 3.:.> X n &.J   O.$.: f +.^   2.q.2 q.2.H &.2...( $.u..X!.F.^.*X<X-X$X%X&X@XJ.",
"^.&X>X>XXXn.J.{.`.^.v.f f v 2.+.- &.2.v k &. .- 2.t.f 2.=...H 2.2.b q.#.|.{.Q.].:X&X-X&X%X@X{.D.",
"'.&X%X>X>XJ.n.F.D.n.D.s J s 2.$.2 $.2.( s O.O.- 2.t.n O.&.&.k =.q.a r.m {.|.Z.'.&X%X@X&X&X{._.D.",
"_.&X&X%X@X[.n.D._.^.H.g O.9 2.&.s O.2.$.2  .( 2 $.r.( v <.O.a r.r.: _ 8 |.'.C.].|.].'.'.{.[.H.D.",
"_.&X-X&X X].^.F.[.#X$Xm $.> <.<.v H 2.&.- ^ $.s  .r.&.k <.$.: 2.t.q ` ` W./.Z._.J.D.F.F.D.D.V.v.",
"/.;X;X&X}.Q.^.V.D.oX-XX.O.2 *.2.n k 2.&.- J 2.n M r.q.9 =.&.s 2.t.M Z w m.^.v.B.V.D.F.F.J.`.J.D.",
"/.=X#X]./.C.N.M.M.].#X3.^ 9 O.$.( 9 2.2.9 M 2.( v r.e.a 2.+.n 2.e.F 7 G y.~.Z.^. X*X&X|.%X>XoX_.",
"/.].!.V.v.M.A.}.|.^.XXp.n s ^  .$.- <.2.f v 2.$.s w.r.9 q.$.^ ( D } } r 1.F.F.]..X,X1X*X-X&X%X'.",
"V.B.n.c.^..X#X;X;X].J.C.l v v O.&.- *.*.n M <.*.a q.r.f O.r.$.r g.Z A z.K D.n.XX-X=X-X;X-X,XXXF.",
"v.F.'.J.%X-X-X;X<X#XJ.J.s H s  .&.9 &. .( f *.*.: q.r.k O.t.F L.g.p & ] S F.n.].=X,X-X-X*X@XJ.n.",
"].@X{.J.&X&X-X%X%X%X[.D.d O.> ( O.f ( O.O.9 &.2.: 2.q.k b t.i j.Z ' & 7 Z XX{.'.`.*X*X$X#XH.D.G.",
"%X>X[.'.&X%X&X&X%X%X{.J.h &.: &.<.v l $.O.: &.2.a  .r.M j r.) r / ~ 1 A Z oX>X'.~..X|.].J.A.OX-X",
"&X&X'.'.&X&X&X&X%X>XJ.J.T O.2 $.<.H f &.O.- $.2.v H r.O.2 r.r.f &.Z f.! 1 ^.&XJ.B.^./.D.b.(.-X-X",
"oX X'.'.@X%X%X&X>X%XD.A.:.^ 9 +.2. .2  . .>  .2.H b e.&.9 q.r.M &.%.D j ( a.&XJ.N.D.H.N.!.%X<X-X",
" X_.D.Z.J.[.{.{.J.J.D.^.u.n s ( 2.$.- O.( a ^ =...f q.2.a q.r.( ( r.e.s <.;. X].A.v.B.A.%X;X&X-X",
"/.D.Q.'.H.D.C.^.^.D.A.OXF.k v b 2.&.- $. .k n <.$.a q.2.f 2.t.&.v r.r.> q.X.[.'.B.V.v.Q..X+X.X.X",
"V.H..X1X#X].H.V.V.V.(.=XOXa M s 2.&.2 +.O.J k <.&.9 $.0.n  .t.q.s q.r.9  .z ].^.s.F.F.F.C.Q.Q.Q.",
"V.].#X;X;X&X#X].S.s.!.OX}.d ( 2 2.<.s ..O.O.a &.=.: O.t.( n t.e.> q.r.v / : D.F.J.$X.X|.!.A.v.d.",
"V.@X-X&X%X.X*X*X].S.F.G.G.z $.- <.<.n n O.o.> $.2.9 ( r.$.s r.t.2 2.2.M M s D.{. X&X$X%X].].^.s.",
"'.-X;X-X&X{.|.&X).!.(.^.A.V $.> =.<.J f &.H * +.2.f ^ e.0.2 q.t.k &.r...b b B.-X&X-X%XOX@X|.|.s.",
"].&X#X-X-X X'..XG.G.{.OX].;.^ 9 &.<. .2 $.O.- O.2.n n q.e.> <.e.M O.w.=.f  .p.-X>X-X@X@X%X'.'.D.",
"V.[.'.{. X].J.H.F. X#X-X&X8.8 u S S Z ` A / : J 2.( k q.r.a 2.&...^ O.q.2 2.,.=X-X-X@X{.^.J.'.J.",
"F.'.^.D.D.H.J.D.D.{.@X#X#Xv.~ R.k.P.U.U.l.G a M <.$.a 2.t.k 2.&.=.k O.e.2 9.X.*X&X-X XA.V.J.|.^.",
"^.#X%X].^.D.V.V.A.G.G.G.A.3.` } 0 A k.P.` O.v l *.<.9 =.t.M  .q.2.a  .q.k $.g ].].].n.n.A.'.@XD.",
"'.&X*X&X&XoXF.^.{.A.,.a E X.Q } y i P.E.! _ H 8 G ( 2 2.r...v w.r.> O.2.H ^ f v.V.v.-.7.v..X#XH.",
"^.#X-X{.@X$X].'.a.8.5.m o @ 7 ~ 0 ) p k.U.f.] f.k.A 2 &.q.*.s q.t.2 &.=.&.9 - < z 5 @.>.R 3.*X^.",
"Q.#X$X]..XOX^.C.u.u.-.x x V 2 7 1 D t k.k.U.z.E.j.S k ..0.q.> q.r.v &.0.s ; E -.:.d.].OX=X=X#XV.",
"^.#X#XoX#XOXF.[.Q.p.8.5.3.E x d 1 e ! { z.k.k.U.} y b M 2.r.: 2.r.M > = h R a.].(.OX#X&X;X;X|.v.",
"].;X#X[.].'.F.{.=X$XS.p.5.-.X.V V k 0 e A ` } j.l.C b v 2.r.a b a < z R :.F.$X%XJ.[.=X&X*X$X(.N.",
"].|.].!.J.D.A.J.OX XG.v.A.F.^.(.m.>.R z s 0 w w & 9 q % 5 > ; 5 m R 8.!.&X&X&X&X[.G.(.'.].(.F.s.",
"V.A.B.V.F.D.c.v.A.N.v.s.A..X;X:X;X*X].v.;.E T c x x x x T E @.;.M.#X*X;X-X:X&X&X@Xn.s.b.c.b.s.s."
};
